<svg version="1.1" id="Layer_1" xmlns="http://www.w3.org/2000/svg" x="0" y="0" viewBox="0 0 180 180" style="enable-background:new 0 0 180 180" xml:space="preserve"><style>.st1{fill:#ff916e}.st2{fill:#fff}.st3{fill:#a3a3a3}.st4{fill:#333}.st5,.st6,.st7,.st8,.st9{fill-rule:evenodd;clip-rule:evenodd;fill:#333}.st6,.st7,.st8,.st9{fill:#414d57}.st7,.st8,.st9{fill:#e7e4e5}.st8,.st9{fill:#ffdb76}.st9{fill:#a3a3a3}.st10{opacity:.7}.st13{fill:#adebf6}</style><circle transform="rotate(-2.204 90.005 90.002) scale(1.00004)" cx="90" cy="90" style="fill:#f2f2f2" r="64.6" id="XMLID_30_"/><path transform="rotate(-13.808 42.37 73.826)" class="st1" d="M29.8 72h25.1v3.7H29.8z"/><path transform="rotate(-13.808 45.848 87.968)" class="st2" d="M33.3 75.1h25.1v25.8H33.3z"/><path transform="rotate(-13.808 43.363 77.876)" class="st3" d="M33.1 77.3h20.4v1.2H33.1z"/><path transform="rotate(-13.808 44 80.468)" class="st3" d="M33.8 79.9h20.4v1.2H33.8z"/><path transform="rotate(-13.808 42.293 83.653)" class="st3" d="M34.5 83h15.6v1.2H34.5z"/><path transform="rotate(-13.808 45.273 85.646)" class="st3" d="M35 85h20.4v1.2H35z"/><path transform="rotate(-13.808 45.912 88.238)" class="st3" d="M35.7 87.6h20.4v1.2H35.7z"/><path transform="rotate(-13.808 47.823 96.009)" class="st3" d="M37.6 95.4H58v1.2H37.6z"/><path transform="rotate(-13.815 44.191 91.409)" class="st3" d="M36.4 90.8H52V92H36.4z"/><path transform="rotate(-13.808 42.23 94.651)" class="st3" d="M37.1 94h10.2v1.2H37.1z"/><path class="st1" d="M32.9 75.4c.1.4-.1.8-.6.9-.4.1-.8-.1-.9-.6-.1-.4.1-.8.6-.9.4-.1.8.2.9.6z"/><path class="st4" d="M32.3 75.9h-.1c-.2 0-.3-.1-.4-.2l-.6-2.2c0-.2.1-.3.2-.4h.1c.2 0 .3.1.4.2l.6 2.2c.1.2 0 .4-.2.4z"/><path class="st1" d="M36.2 74.6c.1.4-.1.8-.6.9-.4.1-.8-.1-.9-.6-.1-.4.1-.8.6-.9.4-.1.8.1.9.6z"/><path class="st4" d="M35.6 75.1h-.1c-.2 0-.3-.1-.4-.2l-.6-2.2c0-.2.1-.3.2-.4h.1c.2 0 .3.1.4.2l.6 2.2c.1.2 0 .3-.2.4z"/><path class="st1" d="M39.5 73.7c.1.4-.1.8-.6.9-.4.1-.8-.1-.9-.6-.1-.4.1-.8.6-.9.4 0 .8.2.9.6z"/><path class="st4" d="M39 74.3h-.1c-.2 0-.3-.1-.4-.2l-.6-2.2c0-.2.1-.3.2-.4h.1c.2 0 .3.1.4.2l.6 2.2c0 .2-.1.3-.2.4z"/><path class="st1" d="M42.9 72.9c.1.4-.1.8-.6.9-.4.1-.8-.1-.9-.6-.1-.4.1-.8.6-.9.4 0 .8.2.9.6z"/><path class="st4" d="M42.3 73.4h-.1c-.2 0-.3-.1-.4-.2l-.6-2.2c0-.2.1-.3.2-.4h.1c.2 0 .3.1.4.2l.6 2.2c.1.2 0 .4-.2.4z"/><g><path class="st1" d="M46.2 72.1c.1.4-.1.8-.6.9-.4.1-.8-.1-.9-.6-.1-.4.1-.8.6-.9.4-.1.8.2.9.6z"/><path class="st4" d="M45.6 72.6h-.1c-.2 0-.3-.1-.4-.2l-.6-2.2c0-.2.1-.3.2-.4h.1c.2 0 .3.1.4.2l.6 2.2c.1.2 0 .4-.2.4z"/></g><g><path class="st1" d="M49.5 71.3c.1.4-.1.8-.6.9-.4.1-.8-.1-.9-.6-.1-.4.1-.8.6-.9.4-.1.8.2.9.6z"/><path class="st4" d="M48.9 71.8h-.1c-.2 0-.3-.1-.4-.2l-.6-2.2c0-.2.1-.3.2-.4h.1c.2 0 .3.1.4.2l.6 2.2c.1.2 0 .4-.2.4z"/></g><g><path class="st1" d="M52.8 70.5c.1.4-.1.8-.6.9-.4.1-.8-.1-.9-.6-.1-.4.1-.8.6-.9.4-.1.8.2.9.6z"/><path class="st4" d="M52.3 71h-.1c-.2 0-.3-.1-.4-.2l-.6-2.2c0-.2.1-.3.2-.4h.1c.2 0 .3.1.4.2l.6 2.2c0 .2-.1.4-.2.4z"/></g><g><path class="st5" d="M127.5 41.9h-75c-1.9 0-2.6.7-2.3 2.3l2.9 17.7h73.7l2.9-17.7c.4-1.6-.3-2.3-2.2-2.3z"/><path class="st6" d="M127.5 40.9H53c-1.9 0-3.2.8-2.9 2.3l.1.4c-.1-1.2.7-1.8 2.3-1.8h75c1.7 0 2.4.6 2.3 1.8.4-1.5-.4-2.7-2.3-2.7z"/><path class="st7" d="M52.5 43.7h75.1L125.2 60l-70.4.1z"/><path class="st7" d="m126.5 44.3-1.8 14.8.5.9 2.4-16.3zM53.5 44.3l1.9 14.9-.6.9-2.3-16.4z"/><path class="st8" d="m126.5 44.2-1.8 14.9-69.3.1-1.9-14.9z"/><g><path class="st5" d="M54.5 62.5h71.1c.9 0 1.7.7 1.7 1.7l-.1 46c0 .9-.7 1.7-1.7 1.7l-70.9.1c-.9 0-1.7-.7-1.7-1.7l-.1-46c0-1 .8-1.8 1.7-1.8z"/></g><g><path class="st7" d="M64 63.2h52.2c.4 0 .5.4.5.9v2c0 .5-.3 1-.7 1H64c-.4 0-.7-.4-.7-.8v-2.1c0-.7.3-1 .7-1z"/></g><g><path class="st7" d="M118.2 62.4h4.1v2.3c0 .2-.2.4-.4.4h-3.3c-.2 0-.4-.2-.4-.4v-2.3z"/><path class="st7" d="M122.4 64.5v.3c0 .2-.2.4-.4.4h-3.3c-.2 0-.4-.2-.4-.4v-.3c0 .2.2.4.4.4h3.3c.2 0 .3-.2.4-.4z"/><path class="st6" d="M118.8 60.9h2.9c.2 0 .3.2.3.3V64c0 .2-.2.3-.3.3h-2.9c-.2 0-.3-.2-.3-.3v-2.8c0-.1.1-.3.3-.3z"/><g><path class="st7" d="M57.7 62.5h4.1v2.3c0 .2-.2.4-.4.4h-3.3c-.2 0-.4-.2-.4-.4v-2.3z"/><path class="st7" d="M61.8 64.6v.3c0 .2-.2.4-.4.4h-3.3c-.2 0-.4-.2-.4-.4v-.3c0 .2.2.4.4.4h3.3c.2-.1.4-.2.4-.4z"/><path class="st6" d="M58.2 61h2.9c.2 0 .3.2.3.3v2.8c0 .2-.2.3-.3.3h-2.9c-.2 0-.3-.2-.3-.3v-2.8c0-.2.1-.3.3-.3z"/></g></g><g><path class="st7" d="M56.5 67.9h67.8c.5 0 .6.4.6.8v23.6c0 .5-.4 1-.9 1H56.5c-.5 0-.9-.4-.9-.9V68.7c0-.4.4-.8.9-.8z"/><path class="st9" d="M119.8 69h2.3c.3 0 .5.2.5.5v1.7c0 .3-.2.5-.5.5h-2.3c-.3 0-.5-.2-.5-.5v-1.7c.1-.2.3-.5.5-.5zM120 72.3h2.1c.3 0 .6.3.6.6v2.3c0 .3-.3.6-.6.6H120c-.3 0-.6-.3-.6-.6v-2.3c0-.3.2-.6.6-.6zM120 76.4h2.1c.3 0 .6.3.6.6v2.3c0 .3-.3.6-.6.6H120c-.3 0-.6-.3-.6-.6V77c0-.4.2-.6.6-.6zM120 80.4h2.1c.3 0 .6.3.6.6v2.3c0 .3-.3.6-.6.6H120c-.3 0-.6-.3-.6-.6V81c0-.3.2-.6.6-.6zM120 84.5h2.1c.3 0 .6.3.6.6v2.3c0 .3-.3.6-.6.6H120c-.3 0-.6-.3-.6-.6v-2.3c0-.4.3-.6.6-.6zM120 88.5h2.1c.3 0 .6.3.6.6v2.3c0 .3-.3.6-.6.6H120c-.3 0-.6-.3-.6-.6v-2.3c0-.3.3-.6.6-.6zM115.8 69h2.3c.3 0 .5.2.5.5v1.7c0 .3-.2.5-.5.5h-2.3c-.3 0-.5-.2-.5-.5v-1.7c0-.2.2-.5.5-.5zM112.2 72.3h5.7c.3 0 .6.3.6.6v2.2c0 .3-.3.6-.6.6h-5.7c-.3 0-.6-.3-.6-.6v-2.2c0-.3.3-.6.6-.6zM114.9 76.4h3.1c.3 0 .6.3.6.6v2.2c0 .3-.3.6-.6.6h-3.1c-.3 0-.6-.3-.6-.6V77c-.1-.4.2-.6.6-.6zM111.8 80.4h6.2c.3 0 .6.3.6.6v2.2c0 .3-.3.6-.6.6h-6.2c-.3 0-.6-.3-.6-.6V81c-.1-.3.2-.6.6-.6zM115.9 84.5h2.1c.3 0 .6.3.6.6v2.3c0 .3-.3.6-.6.6h-2.1c-.3 0-.6-.3-.6-.6v-2.3c0-.4.3-.6.6-.6zM115.9 88.5h2.1c.3 0 .6.3.6.6v2.3c0 .3-.3.6-.6.6h-2.1c-.3 0-.6-.3-.6-.6v-2.3c0-.3.3-.6.6-.6zM112.1 69.1h2c.3 0 .5.2.5.5v1.7c0 .3-.2.5-.5.5h-2c-.3 0-.5-.2-.5-.5v-1.7c0-.3.2-.5.5-.5zM108.3 69.1h2c.3 0 .5.2.5.5v1.7c0 .3-.2.5-.5.5h-2c-.3 0-.5-.2-.5-.5v-1.7c0-.3.2-.5.5-.5zM104.5 69.1h2c.3 0 .5.2.5.5v1.7c0 .3-.2.5-.5.5h-2c-.3 0-.5-.2-.5-.5v-1.7c0-.3.2-.5.5-.5zM100.7 69.1h2c.3 0 .5.2.5.5v1.7c0 .3-.2.5-.5.5h-2c-.3 0-.5-.2-.5-.5v-1.7c0-.3.2-.5.5-.5zM96.9 69.1h2c.3 0 .5.2.5.5v1.7c0 .3-.2.5-.5.5h-2c-.3 0-.5-.2-.5-.5v-1.7c0-.3.2-.5.5-.5zM93.1 69.1h2c.3 0 .5.2.5.5v1.7c0 .3-.2.5-.5.5h-2c-.3 0-.5-.2-.5-.5v-1.7c0-.3.2-.5.5-.5zM89.3 69.1h2c.3 0 .5.2.5.5v1.7c0 .3-.2.5-.5.5h-2c-.3 0-.5-.2-.5-.5v-1.7c0-.3.2-.5.5-.5zM85.5 69.1h2c.3 0 .5.2.5.5v1.7c0 .3-.2.5-.5.5h-2c-.3 0-.5-.2-.5-.5v-1.7c0-.3.2-.5.5-.5zM81.7 69.1h2c.3 0 .5.2.5.5v1.7c0 .3-.2.5-.5.5h-2c-.3 0-.5-.2-.5-.5v-1.7c0-.3.2-.5.5-.5zM77.9 69.1h2c.3 0 .5.2.5.5v1.7c0 .3-.2.5-.5.5h-2c-.3 0-.5-.2-.5-.5v-1.7c0-.3.2-.5.5-.5zM74.1 69.1h2c.3 0 .5.2.5.5v1.7c0 .3-.2.5-.5.5h-2c-.3 0-.5-.2-.5-.5v-1.7c0-.3.2-.5.5-.5zM70.3 69.1h2c.3 0 .5.2.5.5v1.7c0 .3-.2.5-.5.5h-2c-.3 0-.5-.2-.5-.5v-1.7c0-.3.2-.5.5-.5zM66.5 69.1h2c.3 0 .5.2.5.5v1.7c0 .3-.2.5-.5.5h-2c-.3 0-.5-.2-.5-.5v-1.7c0-.3.2-.5.5-.5zM62.7 69.1h2c.3 0 .5.2.5.5v1.7c0 .3-.2.5-.5.5h-2c-.3 0-.5-.2-.5-.5v-1.7c0-.3.2-.5.5-.5zM58.4 69.1h2.3c.3 0 .5.2.5.5v1.7c0 .3-.2.5-.5.5h-2.3c-.3 0-.5-.2-.5-.5v-1.7c0-.3.2-.5.5-.5zM108.1 72.3h2c.3 0 .6.3.6.6v2.3c0 .3-.3.6-.6.6h-2c-.3 0-.6-.3-.6-.6v-2.3c0-.3.3-.6.6-.6zM104 72.3h2c.3 0 .6.3.6.6v2.3c0 .3-.3.6-.6.6h-2c-.3 0-.6-.3-.6-.6v-2.3c0-.3.3-.6.6-.6zM99.9 72.3h2c.3 0 .6.3.6.6v2.3c0 .3-.3.6-.6.6h-2c-.3 0-.6-.3-.6-.6v-2.3c0-.3.3-.6.6-.6zM95.7 72.3h2c.3 0 .6.3.6.6v2.3c0 .3-.3.6-.6.6h-2c-.3 0-.6-.3-.6-.6v-2.3c.1-.3.3-.6.6-.6zM91.6 72.3h2c.3 0 .6.3.6.6v2.3c0 .3-.3.6-.6.6h-2c-.3 0-.6-.3-.6-.6v-2.3c.1-.3.3-.6.6-.6zM87.5 72.3h2c.3 0 .6.3.6.6v2.3c0 .3-.3.6-.6.6h-2c-.3 0-.6-.3-.6-.6v-2.3c0-.3.3-.6.6-.6zM83.4 72.3h2c.3 0 .6.3.6.6v2.3c0 .3-.3.6-.6.6h-2c-.3 0-.6-.3-.6-.6v-2.3c0-.3.3-.6.6-.6zM79.3 72.3h2c.3 0 .6.3.6.6v2.3c0 .3-.3.6-.6.6h-2c-.3 0-.6-.3-.6-.6v-2.3c0-.3.2-.6.6-.6zM75.1 72.3h2c.3 0 .6.3.6.6v2.3c0 .3-.3.6-.6.6h-2c-.3 0-.6-.3-.6-.6v-2.3c.1-.3.3-.6.6-.6zM71 72.3h2c.3 0 .6.3.6.6v2.3c0 .3-.3.6-.6.6h-2c-.3 0-.6-.3-.6-.6v-2.3c0-.3.3-.6.6-.6zM66.9 72.4h2c.3 0 .6.3.6.6v2.3c0 .3-.3.6-.6.6h-2c-.3 0-.6-.3-.6-.6V73c0-.4.3-.6.6-.6zM62.8 72.4h2c.3 0 .6.3.6.6v2.3c0 .3-.3.6-.6.6h-2c-.3 0-.6-.3-.6-.6V73c0-.4.3-.6.6-.6zM58.5 72.4h2.1c.3 0 .6.3.6.6v2.3c0 .3-.3.6-.6.6h-2.1c-.3 0-.6-.3-.6-.6V73c0-.4.3-.6.6-.6zM58.6 76.4h4.3c.3 0 .6.3.6.6v2.2c0 .3-.3.6-.6.6h-4.3c-.3 0-.6-.3-.6-.6V77c-.1-.3.2-.6.6-.6zM58.6 80.5h5.1c.3 0 .6.3.6.6v2.2c0 .3-.3.6-.6.6h-5.1c-.3 0-.6-.3-.6-.6v-2.2c-.1-.3.2-.6.6-.6zM58.6 84.5h7.3c.3 0 .6.3.6.6v2.2c0 .3-.3.6-.6.6h-7.3c-.3 0-.6-.3-.6-.6v-2.2c-.1-.3.2-.6.6-.6zM58.6 88.6h3c.3 0 .6.3.6.6v2.2c0 .3-.3.6-.6.6h-3c-.3 0-.6-.3-.6-.6v-2.2c0-.3.2-.6.6-.6zM64.6 76.4h2.2c.3 0 .6.3.6.6v2.2c0 .3-.3.6-.6.6h-2.2c-.3 0-.6-.3-.6-.6V77c0-.3.2-.6.6-.6zM68.8 76.4H71c.3 0 .6.3.6.6v2.2c0 .3-.3.6-.6.6h-2.2c-.3 0-.6-.3-.6-.6V77c0-.3.2-.6.6-.6zM73 76.4h2.2c.3 0 .6.3.6.6v2.2c0 .3-.3.6-.6.6H73c-.3 0-.6-.3-.6-.6V77c0-.3.2-.6.6-.6zM77.2 76.4h2.2c.3 0 .6.3.6.6v2.2c0 .3-.3.6-.6.6h-2.2c-.3 0-.6-.3-.6-.6V77c0-.3.2-.6.6-.6zM81.4 76.4h2.2c.3 0 .6.3.6.6v2.2c0 .3-.3.6-.6.6h-2.2c-.3 0-.6-.3-.6-.6V77c0-.3.2-.6.6-.6zM85.6 76.4h2.2c.3 0 .6.3.6.6v2.2c0 .3-.3.6-.6.6h-2.2c-.3 0-.6-.3-.6-.6V77c0-.3.2-.6.6-.6zM89.8 76.4H92c.3 0 .6.3.6.6v2.2c0 .3-.3.6-.6.6h-2.2c-.3 0-.6-.3-.6-.6V77c0-.3.2-.6.6-.6zM94 76.4h2.2c.3 0 .6.3.6.6v2.2c0 .3-.3.6-.6.6H94c-.3 0-.6-.3-.6-.6V77c0-.3.2-.6.6-.6zM98.2 76.4h2.2c.3 0 .6.3.6.6v2.2c0 .3-.3.6-.6.6h-2.2c-.3 0-.6-.3-.6-.6V77c0-.3.2-.6.6-.6zM102.4 76.4h2.2c.3 0 .6.3.6.6v2.2c0 .3-.3.6-.6.6h-2.2c-.3 0-.6-.3-.6-.6V77c0-.4.2-.6.6-.6zM106.6 76.4h2.2c.3 0 .6.3.6.6v2.2c0 .3-.3.6-.6.6h-2.2c-.3 0-.6-.3-.6-.6V77c0-.4.2-.6.6-.6zM110.8 76.4h2.2c.3 0 .6.3.6.6v2.2c0 .3-.3.6-.6.6h-2.2c-.3 0-.6-.3-.6-.6V77c0-.4.2-.6.6-.6zM65.8 80.5H68c.3 0 .6.3.6.6v2.2c0 .3-.3.6-.6.6h-2.2c-.3 0-.6-.3-.6-.6v-2.2c-.1-.3.2-.6.6-.6zM70 80.5h2.2c.3 0 .6.3.6.6v2.2c0 .3-.3.6-.6.6H70c-.3 0-.6-.3-.6-.6v-2.2c-.1-.4.2-.6.6-.6zM74.2 80.5h2.2c.3 0 .6.3.6.6v2.2c0 .3-.3.6-.6.6h-2.2c-.3 0-.6-.3-.6-.6v-2.2c-.1-.4.2-.6.6-.6zM78.3 80.5h2.2c.3 0 .6.3.6.6v2.2c0 .3-.3.6-.6.6h-2.2c-.3 0-.6-.3-.6-.6v-2.2c0-.4.3-.6.6-.6zM82.6 80.5h2.2c.3 0 .6.3.6.6v2.2c0 .3-.3.6-.6.6h-2.2c-.3 0-.6-.3-.6-.6v-2.2c-.1-.4.2-.6.6-.6zM86.7 80.5h2.2c.3 0 .6.3.6.6v2.2c0 .3-.3.6-.6.6h-2.2c-.3 0-.6-.3-.6-.6v-2.2c0-.4.3-.6.6-.6zM90.9 80.4h2.2c.3 0 .6.3.6.6v2.2c0 .3-.3.6-.6.6h-2.2c-.3 0-.6-.3-.6-.6V81c0-.3.3-.6.6-.6zM95.1 80.4h2.2c.3 0 .6.3.6.6v2.2c0 .3-.3.6-.6.6h-2.2c-.3 0-.6-.3-.6-.6V81c0-.3.3-.6.6-.6zM99.3 80.4h2.2c.3 0 .6.3.6.6v2.2c0 .3-.3.6-.6.6h-2.2c-.3 0-.6-.3-.6-.6V81c0-.3.3-.6.6-.6zM103.5 80.4h2.2c.3 0 .6.3.6.6v2.2c0 .3-.3.6-.6.6h-2.2c-.3 0-.6-.3-.6-.6V81c0-.3.3-.6.6-.6zM107.7 80.4h2.2c.3 0 .6.3.6.6v2.2c0 .3-.3.6-.6.6h-2.2c-.3 0-.6-.3-.6-.6V81c0-.3.3-.6.6-.6zM68 84.5h2.2c.3 0 .6.3.6.6v2.2c0 .3-.3.6-.6.6L68 88c-.3 0-.6-.3-.6-.6v-2.2c-.1-.4.2-.7.6-.7zM72.2 84.5h2.2c.3 0 .6.3.6.6v2.2c0 .3-.3.6-.6.6h-2.2c-.3 0-.6-.3-.6-.6v-2.2c-.1-.3.2-.6.6-.6zM76.4 84.5h2.2c.3 0 .6.3.6.6v2.2c0 .3-.3.6-.6.6h-2.2c-.3 0-.6-.3-.6-.6v-2.2c-.1-.3.2-.6.6-.6zM80.6 84.5h2.2c.3 0 .6.3.6.6v2.2c0 .3-.3.6-.6.6h-2.2c-.3 0-.6-.3-.6-.6v-2.2c-.1-.3.2-.6.6-.6zM84.8 84.5H87c.3 0 .6.3.6.6v2.2c0 .3-.3.6-.6.6h-2.2c-.3 0-.6-.3-.6-.6v-2.2c-.1-.3.2-.6.6-.6zM89 84.5h2.2c.3 0 .6.3.6.6v2.2c0 .3-.3.6-.6.6L89 88c-.3 0-.6-.3-.6-.6v-2.2c-.1-.4.2-.7.6-.7zM93.2 84.5h2.2c.3 0 .6.3.6.6v2.2c0 .3-.3.6-.6.6h-2.2c-.3 0-.6-.3-.6-.6v-2.2c-.1-.3.2-.6.6-.6zM97.4 84.5h2.2c.3 0 .6.3.6.6v2.2c0 .3-.3.6-.6.6h-2.2c-.3 0-.6-.3-.6-.6v-2.2c-.1-.3.2-.6.6-.6zM101.6 84.5h2.2c.3 0 .6.3.6.6v2.2c0 .3-.3.6-.6.6h-2.2c-.3 0-.6-.3-.6-.6v-2.2c-.1-.3.2-.6.6-.6zM105.8 84.5h2.2c.3 0 .6.3.6.6v2.2c0 .3-.3.6-.6.6h-2.2c-.3 0-.6-.3-.6-.6v-2.2c-.1-.3.2-.6.6-.6zM110 84.5h4c.3 0 .6.3.6.6v2.2c0 .3-.3.6-.6.6h-4c-.3 0-.6-.3-.6-.6v-2.2c-.1-.3.2-.6.6-.6zM63.7 88.6h2.2c.3 0 .6.3.6.6v2.2c0 .3-.3.6-.6.6h-2.2c-.3 0-.6-.3-.6-.6v-2.2c0-.3.3-.6.6-.6zM67.9 88.6h2.2c.3 0 .6.3.6.6v2.2c0 .3-.3.6-.6.6h-2.2c-.3 0-.6-.3-.6-.6v-2.2c0-.3.3-.6.6-.6zM72.1 88.6h2.2c.3 0 .6.3.6.6v2.2c0 .3-.3.6-.6.6h-2.2c-.3 0-.6-.3-.6-.6v-2.2c0-.3.3-.6.6-.6zM76.3 88.6h2.2c.3 0 .6.3.6.6v2.2c0 .3-.3.6-.6.6h-2.2c-.3 0-.6-.3-.6-.6v-2.2c0-.3.3-.6.6-.6zM80.5 88.6h2.2c.3 0 .6.3.6.6v2.2c0 .3-.3.6-.6.6h-2.2c-.3 0-.6-.3-.6-.6v-2.2c0-.3.3-.6.6-.6zM84.7 88.6h2.2c.3 0 .6.3.6.6v2.2c0 .3-.3.6-.6.6h-2.2c-.3 0-.6-.3-.6-.6v-2.2c0-.3.3-.6.6-.6zM88.9 88.6h2.2c.3 0 .6.3.6.6v2.2c0 .3-.3.6-.6.6h-2.2c-.3 0-.6-.3-.6-.6v-2.2c0-.4.3-.6.6-.6zM93.1 88.6h2.2c.3 0 .6.3.6.6v2.2c0 .3-.3.6-.6.6h-2.2c-.3 0-.6-.3-.6-.6v-2.2c0-.4.3-.6.6-.6zM97.3 88.6h2.2c.3 0 .6.3.6.6v2.2c0 .3-.3.6-.6.6h-2.2c-.3 0-.6-.3-.6-.6v-2.2c0-.4.3-.6.6-.6zM101.5 88.6h2.2c.3 0 .6.3.6.6v2.2c0 .3-.3.6-.6.6h-2.2c-.3 0-.6-.3-.6-.6v-2.2c0-.4.3-.6.6-.6zM105.7 88.6h4c.3 0 .6.3.6.6v2.2c0 .3-.3.6-.6.6h-4c-.3 0-.6-.3-.6-.6v-2.2c0-.4.3-.6.6-.6zM111.9 88.5h2.1c.3 0 .6.3.6.6v2.3c0 .3-.3.6-.6.6h-2.1c-.3 0-.6-.3-.6-.6v-2.3c0-.3.3-.6.6-.6z"/></g><g><path class="st7" d="M79 95.8h22.1c.4 0 .5.2.5.4v12.2c0 .2-.1.5-.3.5H78.7c-.2 0-.3-.2-.3-.4V96.2c0-.2.1-.4.6-.4z"/><path class="st9" d="M81.3 96.5h17.3c.3 0 .5.2.5.5v8.3c0 .3-.2.5-.5.5H81.3c-.3 0-.5-.2-.5-.5V97c0-.3.3-.5.5-.5zM80.9 106.6h8.4v1.4h-8.4zM90.7 106.6h8.5v1.4h-8.5z"/></g></g><g><path class="st9" d="M57.6 114.8h56.6v5.7H57.6z"/><path class="st7" d="M58 114.8h.4v1.5H58zM59.2 114.8h.4v1.5h-.4zM60.5 114.8h.4v2.4h-.4zM61.7 114.8h.4v1.5h-.4zM63 114.8h.4v1.5H63zM64.2 114.8h.4v2.4h-.4zM65.5 114.8h.4v1.5h-.4zM66.7 114.8h.4v1.5h-.4zM68 114.8h.4v2.4H68zM69.3 114.8h.4v1.5h-.4zM70.5 114.8h.4v1.5h-.4zM71.8 114.8h.4v2.4h-.4zM73 114.8h.4v1.5H73zM74.3 114.8h.4v1.5h-.4zM75.5 114.8h.4v2.4h-.4z"/><path class="st7" d="M75.5 114.8h.4v2.4h-.4zM76.8 114.8h.4v1.5h-.4zM78 114.8h.4v1.5H78zM79.3 114.8h.4v2.4h-.4z"/><path class="st7" d="M79.3 114.8h.4v2.4h-.4zM80.6 114.8h.4v1.5h-.4zM81.8 114.8h.4v1.5h-.4zM83.1 114.8h.4v2.4h-.4z"/><path class="st7" d="M83.1 114.8h.4v2.4h-.4zM84.3 114.8h.4v1.5h-.4zM85.6 114.8h.4v1.5h-.4zM86.8 114.8h.4v2.4h-.4z"/><path class="st7" d="M86.8 114.8h.4v2.4h-.4zM88.1 114.8h.4v1.5h-.4zM89.4 114.8h.4v1.5h-.4zM90.6 114.8h.4v2.4h-.4z"/><path class="st7" d="M90.6 114.8h.4v2.4h-.4zM91.9 114.8h.4v1.5h-.4zM93.1 114.8h.4v1.5h-.4zM94.4 114.8h.4v2.4h-.4z"/><path class="st7" d="M94.4 114.8h.4v2.4h-.4zM95.6 114.8h.4v1.5h-.4zM96.9 114.8h.4v1.5h-.4zM98.1 114.8h.4v2.4h-.4z"/><path class="st7" d="M98.1 114.8h.4v2.4h-.4zM99.4 114.8h.4v1.5h-.4zM100.7 114.8h.4v1.5h-.4zM101.9 114.8h.4v2.4h-.4z"/><path class="st7" d="M101.9 114.8h.4v2.4h-.4zM103.2 114.8h.4v1.5h-.4zM104.4 114.8h.4v1.5h-.4zM105.7 114.8h.4v2.4h-.4z"/><path class="st7" d="M105.7 114.8h.4v2.4h-.4zM106.9 114.8h.4v1.5h-.4zM108.2 114.8h.4v1.5h-.4zM109.4 114.8h.4v2.4h-.4z"/><path class="st7" d="M109.4 114.8h.4v2.4h-.4zM110.7 114.8h.4v1.5h-.4zM112 114.8h.4v1.5h-.4zM113.2 114.8h.4v2.4h-.4z"/></g><g><path class="st8" d="M57.6 123.5h43v4.4h-43z"/><g class="st10"><path class="st8" d="M57.6 124.9h43v1.6h-43z"/></g><path class="st6" d="M107.7 125.7s-6.9-2.2-7.1-2.2c-.4 0-.7.3-.7.7 0 .4.3.7.7.7-.4 0-.7.3-.7.7 0 .4.3.7.7.7-.4 0-.7.4-.7.7 0 .4.3.7.7.7.2.2 7.1-2 7.1-2z"/><path class="st9" d="M104.4 124.7v2.1l3.3-1.1z"/></g><g><path class="st3" d="M57.6 132.1h1.8v5.9h-1.8z"/><path class="st4" d="M85.4 136v-1.9h1.7l.7 1.9z"/><path class="st3" d="M79.9 132.1v6l5.8-1.1v-3.8z"/><path class="st1" d="M58.9 131.5h22.2v7.1H58.9zM88.9 131.1h7.3v7.9h-7.3z"/></g><g><path class="st9" d="M148.1 98.6c0 5-2.9 9-6.5 9s-6.5-4-6.5-9 2.9-9 6.5-9 6.5 4 6.5 9z"/><path class="st5" d="M141.8 96h-.2c-.2 0-.4-.2-.4-.4v-3.1c0-.2.2-.4.4-.4h.2c.2 0 .4.2.4.4v3.1c0 .2-.2.4-.4.4z"/></g><g><path class="st8" d="M137.7 138.3c-.4.5-1.1.6-1.6.2l-2.8-2.1-.8-.6c-.5-.4-.6-1.1-.2-1.6.2-.3.6-.5.9-.5.2 0 .5.1.7.2l.8.6 2.8 2.1c.5.4.6 1.2.2 1.7z"/><g class="st10"><path class="st8" d="M134.7 134.6c-.4.7-.9 1.3-1.4 1.9l-.8-.6c-.5-.4-.6-1.1-.2-1.6.2-.3.6-.5.9-.5.2 0 .5.1.7.2l.8.6z"/></g><path class="st8" d="M135.3 129.1c0 5.5-4.5 10-10 10s-10-4.5-10-10 4.5-10 10-10c5.5-.1 10 4.4 10 10z"/><path class="st5" d="M133.7 129.1c0 4.6-3.8 8.4-8.4 8.4-4.6 0-8.4-3.8-8.4-8.4 0-4.6 3.8-8.4 8.4-8.4 4.6 0 8.4 3.7 8.4 8.4z"/><g style="opacity:.5"><path class="st5" d="M130.6 122.6c1.2 1.4 1.9 3.3 1.9 5.3 0 4.6-3.8 8.4-8.4 8.4-2 0-3.9-.7-5.3-1.9 1.5 1.9 3.9 3.1 6.5 3.1 4.6 0 8.4-3.8 8.4-8.4 0-2.7-1.2-5-3.1-6.5z"/></g></g><g><path d="M148.7 74.4c0 4.9-4 8.9-8.9 8.9s-8.9-4-8.9-8.9 4-8.9 8.9-8.9c4.9.1 8.9 4 8.9 8.9z" style="fill:#ffdb76"/><path class="st4" d="M139.8 82.3c-4.3 0-7.8-3.5-7.8-7.8s3.5-7.8 7.8-7.8 7.8 3.5 7.8 7.8c.1 4.3-3.4 7.8-7.8 7.8z"/><path class="st3" d="M139.9 64.5c-.4 0-1.9 3.8-2 5.3-.2 2.1.9 1 2 1s2.2 1.1 2-1c-.2-1.8-1.6-5.3-2-5.3z"/><path class="st3" d="M132.7 67.6c-.2.2 1.4 4.1 2.4 5.2 1.4 1.6 1.4.1 2.1-.7.8-.8 2.3-.7.7-2.1-1.4-1.3-4.9-2.7-5.2-2.4z"/><path class="st3" d="M129.9 74.9c0 .3 3.8 1.9 5.3 2 2.1.2 1-.9 1-2s1.1-2.2-1-2c-1.9.1-5.3 1.6-5.3 2z"/><path class="st3" d="M133 82c.2.2 4.1-1.4 5.2-2.4 1.6-1.4.1-1.3-.7-2.1-.8-.8-.7-2.3-2.1-.7-1.3 1.5-2.7 5-2.4 5.2z"/><path class="st3" d="M140.2 84.9c.3 0 1.9-3.8 2-5.3.2-2.1-.9-1-2-1s-2.2-1.1-2 1c.2 1.8 1.7 5.3 2 5.3z"/><path class="st3" d="M147.4 81.8c.2-.2-1.4-4.1-2.4-5.2-1.4-1.6-1.3-.1-2.1.7-.8.8-2.3.7-.7 2.1 1.4 1.2 4.9 2.6 5.2 2.4z"/><path class="st3" d="M150.3 74.5c0-.3-3.8-1.9-5.3-2-2.1-.2-1 .9-1 2s-1.1 2.2 1 2c1.8-.1 5.3-1.6 5.3-2z"/><path class="st3" d="M147.1 67.4c-.2-.2-4.1 1.4-5.2 2.4-1.6 1.4-.1 1.3.7 2.1.8.8.7 2.3 2.1.7 1.3-1.5 2.7-5 2.4-5.2z"/><g><path class="st13" d="M136.7 67.4c-.3.1-.1 3.4.3 4.5.6 1.6 1 .4 1.8.1.8-.4 1.9.1 1.1-1.4-.8-1.3-2.9-3.3-3.2-3.2z"/><path class="st13" d="M132.5 71.9c-.1.3 2.3 2.5 3.3 3 1.5.7 1-.4 1.3-1.2.3-.8 1.4-1.3-.2-1.8-1.3-.3-4.3-.2-4.4 0z"/><path class="st13" d="M132.8 78.1c.1.3 3.4.1 4.5-.3 1.6-.6.4-1 .1-1.8-.4-.8.1-1.9-1.4-1.1-1.3.7-3.3 2.9-3.2 3.2z"/><path class="st13" d="M137.3 82.2c.3.1 2.5-2.3 3-3.3.7-1.5-.4-1-1.2-1.3-.8-.3-1.3-1.4-1.8.2-.4 1.3-.3 4.3 0 4.4z"/><path class="st13" d="M143.4 82c.3-.1.1-3.4-.3-4.5-.6-1.6-1-.4-1.8-.1-.8.4-1.9-.1-1.1 1.4.8 1.3 3 3.3 3.2 3.2z"/><path class="st13" d="M147.6 77.4c.1-.3-2.3-2.5-3.3-3-1.5-.7-1 .4-1.3 1.2-.3.8-1.4 1.3.2 1.8 1.3.4 4.3.3 4.4 0z"/><path class="st13" d="M147.3 71.3c-.1-.3-3.4-.1-4.5.3-1.6.6-.4 1-.1 1.8.4.8-.1 1.9 1.4 1.1 1.3-.7 3.3-2.9 3.2-3.2z"/><path class="st13" d="M142.8 67.2c-.3-.1-2.5 2.3-3 3.3-.7 1.5.4 1 1.2 1.3.8.3 1.3 1.4 1.8-.2.4-1.4.3-4.3 0-4.4z"/></g><g><path class="st2" d="M143.4 71c-.1-.1-2 .7-2.5 1.2-.8.7 0 .7.4 1 .4.4.4 1.1 1 .3.6-.6 1.3-2.3 1.1-2.5z"/><path class="st2" d="M139.9 69.7c-.2 0-.9 1.9-.9 2.6-.1 1.1.4.5 1 .5.5 0 1.1.5 1-.5-.2-.9-1-2.6-1.1-2.6z"/><path class="st2" d="M136.4 71.3c-.1.1.7 2 1.2 2.5.7.8.7 0 1-.4.4-.4 1.1-.4.3-1.1-.6-.5-2.4-1.1-2.5-1z"/><path class="st2" d="M135.1 74.9c0 .2 1.9.9 2.6.9 1.1.1.5-.4.5-1 0-.5.5-1.1-.5-1-.9.1-2.6.9-2.6 1.1z"/><path class="st2" d="M136.7 78.4c.1.1 2-.7 2.5-1.2.8-.7 0-.7-.4-1-.4-.4-.4-1.1-1.1-.3-.5.6-1.1 2.3-1 2.5z"/><path class="st2" d="M140.3 79.7c.2 0 .9-1.9.9-2.6.1-1.1-.5-.5-1-.5s-1.1-.5-1 .5c.1.9.9 2.6 1.1 2.6z"/><path class="st2" d="M143.7 78.1c.1-.1-.7-2-1.2-2.5-.7-.8-.7 0-1 .4-.4.4-1.1.4-.3 1.1.7.5 2.4 1.1 2.5 1z"/><path class="st2" d="M145 74.5c0-.2-1.9-.9-2.6-.9-1.1-.1-.5.4-.5 1 0 .5-.5 1.1.5 1 1-.2 2.7-.9 2.6-1.1z"/></g><g><path class="st3" d="M143.2 73.2c-.1-.1-1.5 0-1.9.1-.7.3-.2.4 0 .8.2.3 0 .8.6.5.5-.4 1.3-1.3 1.3-1.4z"/><path class="st3" d="M141.2 71.4c-.1 0-1.1 1-1.3 1.5-.3.7.2.4.5.6.4.1.6.6.8-.1.2-.7.1-1.9 0-2z"/><path class="st3" d="M138.6 71.6c-.1 0 0 1.5.1 1.9.3.7.4.2.8 0 .3-.2.8 0 .5-.6-.4-.5-1.3-1.4-1.4-1.3z"/><path class="st3" d="M136.8 73.6c0 .1 1 1.1 1.5 1.3.7.3.4-.2.6-.5.1-.4.6-.6-.1-.8-.7-.2-2-.2-2 0z"/><path class="st3" d="M136.9 76.2c.1.1 1.5 0 1.9-.1.7-.3.2-.4 0-.8-.2-.3 0-.8-.6-.5-.5.3-1.3 1.3-1.3 1.4z"/><path class="st3" d="M138.9 78c.1 0 1.1-1 1.3-1.5.3-.7-.2-.4-.5-.6-.4-.1-.6-.6-.8.1-.2.6-.1 1.9 0 2z"/><path class="st3" d="M141.6 77.8c.1 0 0-1.5-.1-1.9-.3-.7-.4-.2-.8 0-.3.2-.8 0-.5.6.3.5 1.3 1.4 1.4 1.3z"/><path class="st3" d="M143.3 75.8c0-.1-1-1.1-1.5-1.3-.7-.3-.4.2-.6.5-.1.4-.6.6.1.8.7.2 2 .2 2 0z"/></g></g></svg>